<mxfile host="app.diagrams.net" modified="2021-05-03T08:51:46.326Z" agent="5.0 (Windows NT 10.0; Win64; x64) AppleWebKit/537.36 (KHTML, like Gecko) Chrome/90.0.4430.93 Safari/537.36 Edg/90.0.818.51" etag="CQVaqZJ8Vnu0vUL2rq4D" version="14.6.9" type="github">
  <diagram id="HBIsmfsJWA4zhFUqbbgt" name="Page-1">
    <mxGraphModel dx="942" dy="624" grid="0" gridSize="10" guides="1" tooltips="1" connect="1" arrows="1" fold="1" page="1" pageScale="1" pageWidth="827" pageHeight="1169" math="0" shadow="0">
      <root>
        <mxCell id="0" />
        <mxCell id="1" parent="0" />
        <mxCell id="NSWClLgl1WzTpq_IJOki-1" value="" style="shape=cube;whiteSpace=wrap;html=1;boundedLbl=1;backgroundOutline=1;darkOpacity=0.05;darkOpacity2=0.1;flipH=0;flipV=0;" vertex="1" parent="1">
          <mxGeometry x="137" y="213.5" width="45" height="163" as="geometry" />
        </mxCell>
        <mxCell id="NSWClLgl1WzTpq_IJOki-2" value="images" style="whiteSpace=wrap;html=1;aspect=fixed;" vertex="1" parent="1">
          <mxGeometry x="20" y="255" width="80" height="80" as="geometry" />
        </mxCell>
        <mxCell id="NSWClLgl1WzTpq_IJOki-3" value="" style="endArrow=classic;html=1;" edge="1" parent="1" source="NSWClLgl1WzTpq_IJOki-2" target="NSWClLgl1WzTpq_IJOki-1">
          <mxGeometry width="50" height="50" relative="1" as="geometry">
            <mxPoint x="110" y="350" as="sourcePoint" />
            <mxPoint x="160" y="300" as="targetPoint" />
          </mxGeometry>
        </mxCell>
        <mxCell id="NSWClLgl1WzTpq_IJOki-4" value="" style="shape=cube;whiteSpace=wrap;html=1;boundedLbl=1;backgroundOutline=1;darkOpacity=0.05;darkOpacity2=0.1;" vertex="1" parent="1">
          <mxGeometry x="211" y="228" width="40" height="134" as="geometry" />
        </mxCell>
        <mxCell id="NSWClLgl1WzTpq_IJOki-5" value="" style="shape=cube;whiteSpace=wrap;html=1;boundedLbl=1;backgroundOutline=1;darkOpacity=0.05;darkOpacity2=0.1;" vertex="1" parent="1">
          <mxGeometry x="280" y="250" width="52" height="90" as="geometry" />
        </mxCell>
        <mxCell id="NSWClLgl1WzTpq_IJOki-6" value="" style="shape=cube;whiteSpace=wrap;html=1;boundedLbl=1;backgroundOutline=1;darkOpacity=0.05;darkOpacity2=0.1;" vertex="1" parent="1">
          <mxGeometry x="357" y="255" width="57" height="80" as="geometry" />
        </mxCell>
        <mxCell id="NSWClLgl1WzTpq_IJOki-7" value="" style="shape=cube;whiteSpace=wrap;html=1;boundedLbl=1;backgroundOutline=1;darkOpacity=0.05;darkOpacity2=0.1;" vertex="1" parent="1">
          <mxGeometry x="433" y="263.25" width="72" height="63" as="geometry" />
        </mxCell>
        <mxCell id="NSWClLgl1WzTpq_IJOki-8" value="" style="rounded=1;whiteSpace=wrap;html=1;" vertex="1" parent="1">
          <mxGeometry x="523" y="208.5" width="32" height="173" as="geometry" />
        </mxCell>
        <mxCell id="NSWClLgl1WzTpq_IJOki-9" value="" style="rounded=1;whiteSpace=wrap;html=1;" vertex="1" parent="1">
          <mxGeometry x="638" y="235" width="32" height="120" as="geometry" />
        </mxCell>
        <mxCell id="NSWClLgl1WzTpq_IJOki-10" value="" style="ellipse;whiteSpace=wrap;html=1;aspect=fixed;" vertex="1" parent="1">
          <mxGeometry x="528.5" y="213.5" width="21.5" height="21.5" as="geometry" />
        </mxCell>
        <mxCell id="NSWClLgl1WzTpq_IJOki-11" value="" style="ellipse;whiteSpace=wrap;html=1;aspect=fixed;" vertex="1" parent="1">
          <mxGeometry x="528.5" y="241.75" width="21.5" height="21.5" as="geometry" />
        </mxCell>
        <mxCell id="NSWClLgl1WzTpq_IJOki-12" value="" style="ellipse;whiteSpace=wrap;html=1;aspect=fixed;" vertex="1" parent="1">
          <mxGeometry x="528.25" y="355" width="21.5" height="21.5" as="geometry" />
        </mxCell>
        <mxCell id="NSWClLgl1WzTpq_IJOki-13" value="" style="ellipse;whiteSpace=wrap;html=1;aspect=fixed;" vertex="1" parent="1">
          <mxGeometry x="528.25" y="326.5" width="21.5" height="21.5" as="geometry" />
        </mxCell>
        <mxCell id="NSWClLgl1WzTpq_IJOki-14" value="" style="endArrow=none;dashed=1;html=1;dashPattern=1 3;strokeWidth=2;entryX=0.5;entryY=1;entryDx=0;entryDy=0;exitX=0.5;exitY=0;exitDx=0;exitDy=0;" edge="1" parent="1">
          <mxGeometry width="50" height="50" relative="1" as="geometry">
            <mxPoint x="582" y="312.25" as="sourcePoint" />
            <mxPoint x="582" y="253.25" as="targetPoint" />
          </mxGeometry>
        </mxCell>
        <mxCell id="NSWClLgl1WzTpq_IJOki-15" value="" style="rounded=1;whiteSpace=wrap;html=1;" vertex="1" parent="1">
          <mxGeometry x="576" y="208.5" width="32" height="173" as="geometry" />
        </mxCell>
        <mxCell id="NSWClLgl1WzTpq_IJOki-16" value="" style="ellipse;whiteSpace=wrap;html=1;aspect=fixed;" vertex="1" parent="1">
          <mxGeometry x="581.5" y="212.75" width="21.5" height="21.5" as="geometry" />
        </mxCell>
        <mxCell id="NSWClLgl1WzTpq_IJOki-17" value="" style="ellipse;whiteSpace=wrap;html=1;aspect=fixed;" vertex="1" parent="1">
          <mxGeometry x="581.25" y="241.75" width="21.5" height="21.5" as="geometry" />
        </mxCell>
        <mxCell id="NSWClLgl1WzTpq_IJOki-18" value="" style="ellipse;whiteSpace=wrap;html=1;aspect=fixed;" vertex="1" parent="1">
          <mxGeometry x="581.25" y="355" width="21.5" height="21.5" as="geometry" />
        </mxCell>
        <mxCell id="NSWClLgl1WzTpq_IJOki-19" value="" style="ellipse;whiteSpace=wrap;html=1;aspect=fixed;" vertex="1" parent="1">
          <mxGeometry x="581.25" y="326.5" width="21.5" height="21.5" as="geometry" />
        </mxCell>
        <mxCell id="NSWClLgl1WzTpq_IJOki-20" value="" style="endArrow=none;dashed=1;html=1;dashPattern=1 3;strokeWidth=2;entryX=0.5;entryY=1;entryDx=0;entryDy=0;exitX=0.5;exitY=0;exitDx=0;exitDy=0;" edge="1" parent="1" source="NSWClLgl1WzTpq_IJOki-13" target="NSWClLgl1WzTpq_IJOki-11">
          <mxGeometry width="50" height="50" relative="1" as="geometry">
            <mxPoint x="415" y="446" as="sourcePoint" />
            <mxPoint x="465" y="396" as="targetPoint" />
          </mxGeometry>
        </mxCell>
        <mxCell id="NSWClLgl1WzTpq_IJOki-21" value="" style="endArrow=none;dashed=1;html=1;dashPattern=1 3;strokeWidth=2;entryX=0.5;entryY=1;entryDx=0;entryDy=0;exitX=0.5;exitY=0;exitDx=0;exitDy=0;" edge="1" parent="1" source="NSWClLgl1WzTpq_IJOki-19" target="NSWClLgl1WzTpq_IJOki-17">
          <mxGeometry width="50" height="50" relative="1" as="geometry">
            <mxPoint x="419" y="434" as="sourcePoint" />
            <mxPoint x="469" y="384" as="targetPoint" />
          </mxGeometry>
        </mxCell>
        <mxCell id="NSWClLgl1WzTpq_IJOki-22" value="" style="endArrow=classic;html=1;exitX=1;exitY=0.5;exitDx=0;exitDy=0;entryX=0;entryY=0.5;entryDx=0;entryDy=0;" edge="1" parent="1" source="NSWClLgl1WzTpq_IJOki-8" target="NSWClLgl1WzTpq_IJOki-15">
          <mxGeometry width="50" height="50" relative="1" as="geometry">
            <mxPoint x="422" y="435" as="sourcePoint" />
            <mxPoint x="472" y="385" as="targetPoint" />
          </mxGeometry>
        </mxCell>
        <mxCell id="NSWClLgl1WzTpq_IJOki-23" value="" style="ellipse;whiteSpace=wrap;html=1;aspect=fixed;" vertex="1" parent="1">
          <mxGeometry x="643.25" y="240" width="21.5" height="21.5" as="geometry" />
        </mxCell>
        <mxCell id="NSWClLgl1WzTpq_IJOki-24" value="" style="ellipse;whiteSpace=wrap;html=1;aspect=fixed;" vertex="1" parent="1">
          <mxGeometry x="643.25" y="326.5" width="21.5" height="21.5" as="geometry" />
        </mxCell>
        <mxCell id="NSWClLgl1WzTpq_IJOki-25" value="" style="endArrow=none;dashed=1;html=1;dashPattern=1 3;strokeWidth=2;entryX=0.5;entryY=1;entryDx=0;entryDy=0;" edge="1" parent="1" target="NSWClLgl1WzTpq_IJOki-23">
          <mxGeometry width="50" height="50" relative="1" as="geometry">
            <mxPoint x="654" y="325" as="sourcePoint" />
            <mxPoint x="704" y="404" as="targetPoint" />
          </mxGeometry>
        </mxCell>
        <mxCell id="NSWClLgl1WzTpq_IJOki-26" value="" style="endArrow=classic;html=1;exitX=1;exitY=0.5;exitDx=0;exitDy=0;entryX=0;entryY=0.5;entryDx=0;entryDy=0;" edge="1" parent="1" source="NSWClLgl1WzTpq_IJOki-15" target="NSWClLgl1WzTpq_IJOki-9">
          <mxGeometry width="50" height="50" relative="1" as="geometry">
            <mxPoint x="629" y="467" as="sourcePoint" />
            <mxPoint x="679" y="417" as="targetPoint" />
          </mxGeometry>
        </mxCell>
        <mxCell id="NSWClLgl1WzTpq_IJOki-27" value="" style="shape=flexArrow;endArrow=classic;html=1;width=14;endSize=6.17;endWidth=7;" edge="1" parent="1">
          <mxGeometry width="50" height="50" relative="1" as="geometry">
            <mxPoint x="182" y="294.5" as="sourcePoint" />
            <mxPoint x="216" y="294.5" as="targetPoint" />
          </mxGeometry>
        </mxCell>
        <mxCell id="NSWClLgl1WzTpq_IJOki-28" value="" style="shape=flexArrow;endArrow=classic;html=1;width=14;endSize=6.17;endWidth=7;" edge="1" parent="1">
          <mxGeometry width="50" height="50" relative="1" as="geometry">
            <mxPoint x="251" y="294.5" as="sourcePoint" />
            <mxPoint x="285" y="294.5" as="targetPoint" />
          </mxGeometry>
        </mxCell>
        <mxCell id="NSWClLgl1WzTpq_IJOki-29" value="" style="shape=flexArrow;endArrow=classic;html=1;width=14;endSize=6.17;endWidth=7;" edge="1" parent="1">
          <mxGeometry width="50" height="50" relative="1" as="geometry">
            <mxPoint x="332" y="294.5" as="sourcePoint" />
            <mxPoint x="366" y="294.5" as="targetPoint" />
          </mxGeometry>
        </mxCell>
        <mxCell id="NSWClLgl1WzTpq_IJOki-30" value="" style="shape=flexArrow;endArrow=classic;html=1;width=14;endSize=6.17;endWidth=7;" edge="1" parent="1">
          <mxGeometry width="50" height="50" relative="1" as="geometry">
            <mxPoint x="414" y="294.5" as="sourcePoint" />
            <mxPoint x="448" y="294.5" as="targetPoint" />
          </mxGeometry>
        </mxCell>
        <mxCell id="NSWClLgl1WzTpq_IJOki-31" value="" style="endArrow=classic;html=1;entryX=0;entryY=0.5;entryDx=0;entryDy=0;" edge="1" parent="1" target="NSWClLgl1WzTpq_IJOki-8">
          <mxGeometry width="50" height="50" relative="1" as="geometry">
            <mxPoint x="497" y="295" as="sourcePoint" />
            <mxPoint x="497" y="391" as="targetPoint" />
          </mxGeometry>
        </mxCell>
        <mxCell id="NSWClLgl1WzTpq_IJOki-36" value="" style="rounded=1;whiteSpace=wrap;html=1;" vertex="1" parent="1">
          <mxGeometry x="721" y="285.38" width="32" height="108" as="geometry" />
        </mxCell>
        <mxCell id="NSWClLgl1WzTpq_IJOki-37" value="" style="ellipse;whiteSpace=wrap;html=1;aspect=fixed;fillColor=#dae8fc;strokeColor=#6c8ebf;" vertex="1" parent="1">
          <mxGeometry x="726.25" y="290.38" width="21.5" height="21.5" as="geometry" />
        </mxCell>
        <mxCell id="NSWClLgl1WzTpq_IJOki-38" value="" style="endArrow=none;dashed=1;html=1;dashPattern=1 3;strokeWidth=2;entryX=0.5;entryY=1;entryDx=0;entryDy=0;startArrow=none;exitX=0.5;exitY=0;exitDx=0;exitDy=0;" edge="1" parent="1" source="NSWClLgl1WzTpq_IJOki-44" target="NSWClLgl1WzTpq_IJOki-37">
          <mxGeometry width="50" height="50" relative="1" as="geometry">
            <mxPoint x="737" y="356.38" as="sourcePoint" />
            <mxPoint x="787" y="454.38" as="targetPoint" />
          </mxGeometry>
        </mxCell>
        <mxCell id="NSWClLgl1WzTpq_IJOki-39" value="conv1" style="text;html=1;strokeColor=none;fillColor=none;align=center;verticalAlign=middle;whiteSpace=wrap;rounded=0;" vertex="1" parent="1">
          <mxGeometry x="142" y="395" width="40" height="20" as="geometry" />
        </mxCell>
        <mxCell id="NSWClLgl1WzTpq_IJOki-40" value="conv2" style="text;html=1;strokeColor=none;fillColor=none;align=center;verticalAlign=middle;whiteSpace=wrap;rounded=0;" vertex="1" parent="1">
          <mxGeometry x="214" y="380" width="40" height="20" as="geometry" />
        </mxCell>
        <mxCell id="NSWClLgl1WzTpq_IJOki-41" value="conv3" style="text;html=1;strokeColor=none;fillColor=none;align=center;verticalAlign=middle;whiteSpace=wrap;rounded=0;" vertex="1" parent="1">
          <mxGeometry x="292" y="361.5" width="40" height="20" as="geometry" />
        </mxCell>
        <mxCell id="NSWClLgl1WzTpq_IJOki-42" value="conv4" style="text;html=1;strokeColor=none;fillColor=none;align=center;verticalAlign=middle;whiteSpace=wrap;rounded=0;" vertex="1" parent="1">
          <mxGeometry x="366" y="355" width="40" height="20" as="geometry" />
        </mxCell>
        <mxCell id="NSWClLgl1WzTpq_IJOki-43" value="conv5" style="text;html=1;strokeColor=none;fillColor=none;align=center;verticalAlign=middle;whiteSpace=wrap;rounded=0;" vertex="1" parent="1">
          <mxGeometry x="449" y="342" width="40" height="20" as="geometry" />
        </mxCell>
        <mxCell id="NSWClLgl1WzTpq_IJOki-44" value="" style="ellipse;whiteSpace=wrap;html=1;aspect=fixed;" vertex="1" parent="1">
          <mxGeometry x="726.25" y="365.63" width="21.5" height="21.5" as="geometry" />
        </mxCell>
        <mxCell id="NSWClLgl1WzTpq_IJOki-46" value="" style="endArrow=classic;html=1;exitX=1;exitY=0.5;exitDx=0;exitDy=0;entryX=0;entryY=0.5;entryDx=0;entryDy=0;" edge="1" parent="1" source="NSWClLgl1WzTpq_IJOki-9" target="NSWClLgl1WzTpq_IJOki-36">
          <mxGeometry width="50" height="50" relative="1" as="geometry">
            <mxPoint x="655" y="489" as="sourcePoint" />
            <mxPoint x="705" y="439" as="targetPoint" />
          </mxGeometry>
        </mxCell>
        <mxCell id="NSWClLgl1WzTpq_IJOki-47" value="fc6" style="text;html=1;strokeColor=none;fillColor=none;align=center;verticalAlign=middle;whiteSpace=wrap;rounded=0;" vertex="1" parent="1">
          <mxGeometry x="519" y="391" width="40" height="20" as="geometry" />
        </mxCell>
        <mxCell id="NSWClLgl1WzTpq_IJOki-48" value="fc7" style="text;html=1;strokeColor=none;fillColor=none;align=center;verticalAlign=middle;whiteSpace=wrap;rounded=0;" vertex="1" parent="1">
          <mxGeometry x="572" y="391" width="40" height="20" as="geometry" />
        </mxCell>
        <mxCell id="NSWClLgl1WzTpq_IJOki-49" value="fch" style="text;html=1;strokeColor=none;fillColor=none;align=center;verticalAlign=middle;whiteSpace=wrap;rounded=0;" vertex="1" parent="1">
          <mxGeometry x="634" y="368" width="40" height="20" as="geometry" />
        </mxCell>
        <mxCell id="NSWClLgl1WzTpq_IJOki-51" value="sign" style="text;html=1;strokeColor=none;fillColor=none;align=center;verticalAlign=middle;whiteSpace=wrap;rounded=0;" vertex="1" parent="1">
          <mxGeometry x="665" y="317" width="40" height="20" as="geometry" />
        </mxCell>
        <mxCell id="NSWClLgl1WzTpq_IJOki-52" value="哈希码" style="text;html=1;strokeColor=none;fillColor=none;align=center;verticalAlign=middle;whiteSpace=wrap;rounded=0;" vertex="1" parent="1">
          <mxGeometry x="717" y="398.63" width="40" height="20" as="geometry" />
        </mxCell>
        <mxCell id="NSWClLgl1WzTpq_IJOki-53" value="&lt;div&gt;&lt;span&gt;损失：&lt;/span&gt;&lt;/div&gt;&lt;div&gt;&lt;span&gt;柯西交叉熵损失&lt;/span&gt;&lt;/div&gt;&lt;div&gt;&lt;span&gt;哈希码约束损失&lt;/span&gt;&lt;/div&gt;" style="rounded=1;whiteSpace=wrap;html=1;align=center;fillColor=#dae8fc;strokeColor=#6c8ebf;" vertex="1" parent="1">
          <mxGeometry x="696" y="208.5" width="116" height="60" as="geometry" />
        </mxCell>
        <mxCell id="NSWClLgl1WzTpq_IJOki-56" value="" style="endArrow=classic;html=1;exitX=1;exitY=0.5;exitDx=0;exitDy=0;entryX=0.5;entryY=1;entryDx=0;entryDy=0;" edge="1" parent="1" source="NSWClLgl1WzTpq_IJOki-9" target="NSWClLgl1WzTpq_IJOki-53">
          <mxGeometry width="50" height="50" relative="1" as="geometry">
            <mxPoint x="632" y="546" as="sourcePoint" />
            <mxPoint x="682" y="496" as="targetPoint" />
          </mxGeometry>
        </mxCell>
      </root>
    </mxGraphModel>
  </diagram>
</mxfile>
